<svg width="213" height="46" viewBox="0 0 213 46" fill="none" xmlns="http://www.w3.org/2000/svg">
<rect width="46" height="46" rx="23" fill="#F8F8F8"/>
<path d="M10.1985 29.5146V29.558H10.0512C10.0512 29.558 10.0512 29.532 10.0512 29.519L10.1985 29.5146ZM39.3847 23.09C39.3733 27.2218 37.8275 31.2021 35.0472 34.2585C32.2669 37.315 28.4504 39.2297 24.3381 39.6312C20.2258 40.0327 16.111 38.8923 12.792 36.4313C9.47307 33.9703 7.18662 30.3641 6.3763 26.3125C5.56598 22.2609 6.28957 18.0527 8.40668 14.5045C10.5238 10.9563 13.8835 8.32099 17.8338 7.10993C21.7842 5.89888 26.0436 6.19842 29.7856 7.95043C33.5276 9.70245 36.4854 12.782 38.085 16.5916C38.9493 18.6488 39.3913 20.8586 39.3847 23.09V23.09ZM36.9976 23.09C36.9994 20.915 36.5063 18.7681 35.5556 16.8119C34.6048 14.8558 33.2215 13.1416 31.5102 11.7991C29.7989 10.4567 27.8046 9.52132 25.6783 9.06373C23.552 8.60613 21.3495 8.63837 19.2375 9.15799C17.1255 9.67761 15.1594 10.671 13.4882 12.0629C11.8169 13.4548 10.4843 15.2088 9.59124 17.1919C8.69817 19.1751 8.26807 21.3355 8.3335 23.5095C8.39894 25.6835 8.95819 27.8141 9.96892 29.7399C10.2033 29.6815 10.4323 29.6033 10.6534 29.506C10.961 29.363 11.2469 29.1767 11.5415 29.0078L11.5978 28.9558L11.5112 28.8821C11.4765 28.8475 11.4895 28.8258 11.5329 28.8128C11.5762 28.7998 11.5329 28.8128 11.5329 28.8128C11.6931 28.8821 11.8881 28.8475 12.0181 28.9948L12.0441 29.0251L12.2867 29.1681C12.3473 29.2027 12.4036 29.2374 12.4123 29.1074L12.9711 29.3457C13.0094 29.2844 13.0614 29.2329 13.1231 29.1953C13.1848 29.1577 13.2544 29.135 13.3264 29.1291C13.462 29.1017 13.5942 29.0596 13.7206 29.0034V29.0034L14.0672 28.7608C13.8824 28.8665 13.6898 28.9577 13.491 29.0338C13.4835 29.037 13.4754 29.0386 13.4672 29.0386C13.459 29.0386 13.4509 29.037 13.4434 29.0338L13.8203 28.8561C14.1678 28.6915 14.4867 28.4721 14.7647 28.2063L15.3625 27.4395C15.4519 27.2535 15.5174 27.057 15.5575 26.8547C15.6399 26.3511 15.6399 25.8376 15.5575 25.334C15.5575 25.2647 15.5575 25.1954 15.5575 25.1304C15.5575 25.0655 15.5575 25.1304 15.5575 25.1044L15.4968 25.2431L15.4752 25.2127C15.4535 25.0741 15.4405 24.9398 15.4145 24.8055C15.3885 24.6712 15.3582 24.6062 15.3322 24.5066C15.2846 24.3376 15.2456 24.1687 15.1892 24.0041C15.1329 23.8394 15.0463 23.6228 14.9683 23.4365C14.8903 23.2503 14.8037 23.0596 14.7257 22.8647C14.6954 22.7867 14.6867 22.6957 14.6607 22.6134C14.6583 22.5663 14.6417 22.521 14.6131 22.4834C14.4268 22.2972 14.4354 22.0026 14.2232 21.8249C14.1365 21.7556 14.1149 21.617 14.0585 21.5087L14.0152 21.4264C14.0152 21.4004 13.9719 21.3657 13.9762 21.3397C13.9762 21.1751 13.8852 21.0711 13.8116 20.9455C13.7746 20.8656 13.7484 20.7811 13.7336 20.6942C13.7296 20.6459 13.7208 20.598 13.7076 20.5513C13.647 20.404 13.569 20.2697 13.5213 20.1181C13.4731 19.9619 13.4355 19.8027 13.4087 19.6415C13.3524 19.3253 13.3221 19.009 13.2441 18.7014C13.1964 18.5065 13.2224 18.3115 13.1834 18.1209C13.1655 18.0355 13.1582 17.9482 13.1618 17.861C13.1618 17.796 13.2008 17.731 13.2094 17.666C13.2622 17.3905 13.2869 17.1104 13.2831 16.8299C13.2547 16.5452 13.2918 16.2577 13.3914 15.9894C13.4112 15.9087 13.4199 15.8256 13.4174 15.7425C13.4174 15.7165 13.4174 15.6819 13.4174 15.6732C13.5387 15.5909 13.5387 15.4566 13.5647 15.3353C13.6296 15.0234 13.6816 14.7114 13.7466 14.3995C13.7734 14.3127 13.8113 14.2297 13.8593 14.1526C13.9 14.0835 13.9448 14.017 13.9936 13.9533L14.3185 13.5201C14.4524 13.3509 14.5767 13.1745 14.691 12.9916C14.8594 12.7016 15.1055 12.4645 15.4015 12.3071C15.7853 12.0919 16.1518 11.8471 16.4976 11.5749C17.1054 11.0897 17.8245 10.7636 18.59 10.6262C18.9236 10.5655 19.2442 10.4485 19.5691 10.3619L19.894 10.2752C19.9126 10.271 19.9318 10.271 19.9504 10.2752C20.111 10.3163 20.2793 10.3163 20.4399 10.2752C20.7042 10.2406 20.9728 10.2059 21.237 10.1799C21.419 10.1799 21.6009 10.1539 21.7829 10.1453C21.8479 10.1453 21.9129 10.1756 21.9735 10.1756C22.1251 10.1756 22.2724 10.1756 22.4067 10.1756C22.8805 10.1258 23.3582 10.1258 23.832 10.1756C24.1093 10.2103 24.3865 10.2709 24.6595 10.3186H24.6855C24.8536 10.3298 25.0169 10.3802 25.162 10.4659C25.3483 10.5352 25.5303 10.6262 25.7209 10.6955C26.0474 10.813 26.3332 11.022 26.544 11.2977C26.7775 11.6057 26.9657 11.9456 27.1029 12.3071C27.1161 12.3415 27.132 12.3748 27.1505 12.4067C27.3229 12.6756 27.4571 12.9672 27.5491 13.2731C27.6104 13.4465 27.6568 13.6248 27.6877 13.806C27.7242 13.983 27.8013 14.1491 27.913 14.2912C28.0559 14.4732 28.1946 14.6638 28.3462 14.8501C28.3979 14.9211 28.4456 14.9948 28.4892 15.071C28.5282 15.1403 28.5541 15.2226 28.5975 15.292C28.6467 15.3783 28.7064 15.4584 28.7751 15.5302C29.0525 15.821 29.2248 16.1961 29.2646 16.596C29.2745 16.6562 29.289 16.7156 29.308 16.7736C29.347 16.9271 29.347 17.0879 29.308 17.2415C29.2546 17.4789 29.2443 17.7239 29.2776 17.9649C29.2862 18.0861 29.2862 18.2077 29.2776 18.3288C29.2769 18.362 29.2844 18.3948 29.2995 18.4243C29.3147 18.4538 29.3369 18.4791 29.3643 18.4978C29.5289 18.6148 29.6979 18.7361 29.8581 18.8617C29.9116 18.9094 29.9609 18.9616 30.0054 19.0177C30.1397 19.165 30.287 19.3079 30.4127 19.4509C30.6303 19.7088 30.739 20.0413 30.7159 20.378C30.7179 20.3924 30.7179 20.4069 30.7159 20.4213C30.6565 20.5936 30.6186 20.7726 30.6033 20.9542C30.5962 21.059 30.5675 21.1612 30.519 21.2543C30.4706 21.3475 30.4034 21.4297 30.3217 21.4957C30.287 21.5217 30.2567 21.5564 30.2177 21.591L30.4647 21.7556C30.5178 21.7851 30.5642 21.8253 30.6007 21.8739C30.6373 21.9224 30.6633 21.978 30.6769 22.0372C30.7014 22.1482 30.7392 22.2559 30.7896 22.3578C30.8459 22.4661 30.7896 22.5831 30.8372 22.6784C30.8849 22.7737 30.8589 22.8604 30.8632 22.9557C30.8632 22.9297 30.8632 22.8993 30.8632 22.8777C30.8286 23.0336 30.7982 23.1896 30.7636 23.3456L30.7939 23.3846C31.0322 23.6705 30.6163 24.4763 30.6163 24.4763C30.547 24.5889 30.4733 24.7059 30.4127 24.8228C30.3482 24.9429 30.2959 25.0692 30.2567 25.1998C30.2134 25.334 30.3 25.4337 30.378 25.5247C30.4616 25.6335 30.5721 25.7186 30.6986 25.7716C30.7419 25.7716 30.7636 25.8496 30.7982 25.8886L30.9455 26.0705C30.9869 26.1186 31.0232 26.1709 31.0538 26.2265C31.1361 26.3868 31.1535 26.5774 31.3051 26.7117C31.3571 26.755 31.3614 26.8633 31.3614 26.9456C31.3518 27.0152 31.3343 27.0835 31.3094 27.1492C31.2531 27.3269 31.2055 27.5045 31.1448 27.6821C31.1145 27.7818 31.0712 27.8814 31.0322 27.9767C30.9932 28.072 30.9542 28.1153 30.9282 28.189C30.9116 28.2607 30.8722 28.3252 30.816 28.3728C30.7598 28.4204 30.6898 28.4486 30.6163 28.4532L30.4603 28.4792C30.4139 28.481 30.3687 28.4941 30.3287 28.5176C30.2886 28.541 30.255 28.574 30.2307 28.6135C30.1534 28.7361 30.041 28.8326 29.9081 28.8905C29.7752 28.9485 29.628 28.9652 29.4856 28.9385C29.1727 28.9006 28.8648 28.8295 28.5671 28.7262C28.4493 28.7073 28.3419 28.6475 28.2639 28.5572C28.2424 28.5392 28.2173 28.5259 28.1902 28.5182C27.9615 28.4019 27.7489 28.2562 27.5577 28.085C27.4897 28.0386 27.4131 28.0062 27.3325 27.9897C27.2935 27.9897 27.2458 27.9897 27.2068 27.9637C26.9908 27.9065 26.7672 27.8832 26.544 27.8944C26.3063 27.9165 26.0818 28.0136 25.9028 28.1717C25.5585 28.4847 25.2737 28.8575 25.0624 29.272C24.9064 29.5493 24.7808 29.8396 24.6292 30.1385C24.5704 30.284 24.5495 30.442 24.5685 30.5977C24.5583 30.915 24.5133 31.2303 24.4342 31.5378C24.3822 31.7717 24.3389 32.01 24.2912 32.2483C24.282 32.2822 24.2852 32.3184 24.3003 32.3502C24.3154 32.3819 24.3414 32.4073 24.3736 32.4216C24.6811 32.6165 24.9887 32.8201 25.3006 33.0064C25.4479 33.0974 25.6126 33.1494 25.7642 33.2274C26.1996 33.467 26.5931 33.7757 26.9296 34.1415C27.3466 34.5903 27.8099 34.994 28.3115 35.3458C28.4242 35.4238 28.5585 35.4671 28.6754 35.5408C28.7924 35.6144 28.983 35.766 29.139 35.8657C31.5003 34.6688 33.4843 32.8417 34.8713 30.5869C36.2583 28.332 36.9942 25.7373 36.9976 23.09Z" fill="#121212"/>
<path d="M67.7 30.5V16.3H72.62C74.14 16.3 75.4067 16.62 76.42 17.26C77.4467 17.8867 78.2133 18.74 78.72 19.82C79.2267 20.8867 79.48 22.0733 79.48 23.38C79.48 24.82 79.2 26.0733 78.64 27.14C78.08 28.2067 77.2867 29.0333 76.26 29.62C75.2333 30.2067 74.02 30.5 72.62 30.5H67.7ZM77.66 23.38C77.66 22.3133 77.46 21.3667 77.06 20.54C76.6733 19.7133 76.1067 19.0667 75.36 18.6C74.6133 18.1333 73.7 17.9 72.62 17.9H69.5V28.9H72.62C73.7133 28.9 74.6333 28.66 75.38 28.18C76.1267 27.6867 76.6933 27.0267 77.08 26.2C77.4667 25.36 77.66 24.42 77.66 23.38ZM80.8188 27.48C80.8188 26.8133 81.0054 26.24 81.3788 25.76C81.7654 25.2667 82.2921 24.8867 82.9588 24.62C83.6254 24.3533 84.3988 24.22 85.2788 24.22C85.7454 24.22 86.2388 24.26 86.7588 24.34C87.2788 24.4067 87.7388 24.5133 88.1388 24.66V23.9C88.1388 23.1 87.8988 22.4733 87.4188 22.02C86.9388 21.5533 86.2588 21.32 85.3788 21.32C84.8054 21.32 84.2521 21.4267 83.7188 21.64C83.1988 21.84 82.6454 22.1333 82.0588 22.52L81.4188 21.28C82.0988 20.8133 82.7788 20.4667 83.4588 20.24C84.1388 20 84.8454 19.88 85.5788 19.88C86.9121 19.88 87.9654 20.2533 88.7388 21C89.5121 21.7333 89.8988 22.76 89.8988 24.08V28.5C89.8988 28.7133 89.9388 28.8733 90.0188 28.98C90.1121 29.0733 90.2588 29.1267 90.4588 29.14V30.5C90.2854 30.5267 90.1321 30.5467 89.9988 30.56C89.8788 30.5733 89.7788 30.58 89.6988 30.58C89.2854 30.58 88.9721 30.4667 88.7588 30.24C88.5588 30.0133 88.4454 29.7733 88.4188 29.52L88.3788 28.86C87.9254 29.4467 87.3321 29.9 86.5988 30.22C85.8654 30.54 85.1388 30.7 84.4188 30.7C83.7254 30.7 83.1054 30.56 82.5588 30.28C82.0121 29.9867 81.5854 29.6 81.2788 29.12C80.9721 28.6267 80.8188 28.08 80.8188 27.48ZM87.6188 28.22C87.7788 28.0333 87.9054 27.8467 87.9988 27.66C88.0921 27.46 88.1388 27.2933 88.1388 27.16V25.86C87.7254 25.7 87.2921 25.58 86.8388 25.5C86.3854 25.4067 85.9388 25.36 85.4987 25.36C84.6054 25.36 83.8788 25.54 83.3188 25.9C82.7721 26.2467 82.4988 26.7267 82.4988 27.34C82.4988 27.6733 82.5854 28 82.7588 28.32C82.9454 28.6267 83.2121 28.88 83.5588 29.08C83.9188 29.28 84.3588 29.38 84.8788 29.38C85.4254 29.38 85.9454 29.2733 86.4388 29.06C86.9321 28.8333 87.3254 28.5533 87.6188 28.22ZM101.773 30.5H100.013V24.66C100.013 23.5533 99.8396 22.7467 99.493 22.24C99.1596 21.72 98.6463 21.46 97.953 21.46C97.473 21.46 96.993 21.58 96.513 21.82C96.0463 22.06 95.6263 22.3867 95.253 22.8C94.893 23.2 94.633 23.6667 94.473 24.2V30.5H92.713V20.06H94.313V22.3C94.593 21.8067 94.953 21.38 95.393 21.02C95.833 20.66 96.333 20.38 96.893 20.18C97.453 19.98 98.0396 19.88 98.653 19.88C99.253 19.88 99.753 19.9933 100.153 20.22C100.566 20.4333 100.886 20.74 101.113 21.14C101.353 21.5267 101.52 21.9867 101.613 22.52C101.72 23.0533 101.773 23.6333 101.773 24.26V30.5ZM104.51 30.5V20.06H106.27V30.5H104.51ZM104.51 18.1V15.9H106.27V18.1H104.51ZM113.739 30.7C112.953 30.7 112.233 30.56 111.579 30.28C110.939 29.9867 110.379 29.5933 109.899 29.1C109.433 28.5933 109.066 28.0133 108.799 27.36C108.546 26.7067 108.419 26.0133 108.419 25.28C108.419 24.2933 108.646 23.3933 109.099 22.58C109.553 21.7667 110.179 21.1133 110.979 20.62C111.793 20.1267 112.719 19.88 113.759 19.88C114.813 19.88 115.726 20.1333 116.499 20.64C117.286 21.1333 117.893 21.7867 118.319 22.6C118.759 23.4 118.979 24.2667 118.979 25.2C118.979 25.3333 118.973 25.4667 118.959 25.6C118.959 25.72 118.953 25.8133 118.939 25.88H110.279C110.333 26.56 110.519 27.1667 110.839 27.7C111.173 28.22 111.599 28.6333 112.119 28.94C112.639 29.2333 113.199 29.38 113.799 29.38C114.439 29.38 115.039 29.22 115.599 28.9C116.173 28.58 116.566 28.16 116.779 27.64L118.299 28.06C118.073 28.5667 117.733 29.02 117.279 29.42C116.839 29.82 116.313 30.1333 115.699 30.36C115.099 30.5867 114.446 30.7 113.739 30.7ZM110.219 24.66H117.339C117.286 23.98 117.093 23.38 116.759 22.86C116.426 22.34 115.999 21.9333 115.479 21.64C114.959 21.3467 114.386 21.2 113.759 21.2C113.146 21.2 112.579 21.3467 112.059 21.64C111.539 21.9333 111.113 22.34 110.779 22.86C110.459 23.38 110.273 23.98 110.219 24.66ZM120.976 15.9H122.736V27.8C122.736 28.3733 122.816 28.7267 122.976 28.86C123.136 28.9933 123.329 29.06 123.556 29.06C123.836 29.06 124.102 29.0333 124.356 28.98C124.609 28.9133 124.822 28.8467 124.996 28.78L125.276 30.22C124.982 30.34 124.636 30.44 124.236 30.52C123.836 30.6 123.482 30.64 123.176 30.64C122.496 30.64 121.956 30.4467 121.556 30.06C121.169 29.6733 120.976 29.1333 120.976 28.44V15.9ZM129.845 28.38C130.098 28.5533 130.445 28.72 130.885 28.88C131.338 29.0267 131.871 29.1 132.485 29.1C133.111 29.1 133.625 29 134.025 28.8C134.425 28.5867 134.731 28.2733 134.945 27.86C135.158 27.4333 135.305 26.8933 135.385 26.24C135.465 25.5867 135.505 24.8133 135.505 23.92V16.3H137.305V23.52C137.305 24.5733 137.251 25.54 137.145 26.42C137.038 27.3 136.825 28.0667 136.505 28.72C136.185 29.36 135.705 29.8533 135.065 30.2C134.438 30.5467 133.598 30.72 132.545 30.72C131.878 30.72 131.291 30.6467 130.785 30.5C130.278 30.3533 129.811 30.1333 129.385 29.84L129.845 28.38ZM140.272 30.5V20.06H142.032V30.5H140.272ZM140.272 18.1V15.9H142.032V18.1H140.272ZM153.941 30.5H152.181V24.66C152.181 23.5533 152.008 22.7467 151.661 22.24C151.328 21.72 150.814 21.46 150.121 21.46C149.641 21.46 149.161 21.58 148.681 21.82C148.214 22.06 147.794 22.3867 147.421 22.8C147.061 23.2 146.801 23.6667 146.641 24.2V30.5H144.881V20.06H146.481V22.3C146.761 21.8067 147.121 21.38 147.561 21.02C148.001 20.66 148.501 20.38 149.061 20.18C149.621 19.98 150.208 19.88 150.821 19.88C151.421 19.88 151.921 19.9933 152.321 20.22C152.734 20.4333 153.054 20.74 153.281 21.14C153.521 21.5267 153.688 21.9867 153.781 22.52C153.888 23.0533 153.941 23.6333 153.941 24.26V30.5ZM172.418 30.5H170.658V24.66C170.658 23.5667 170.478 22.76 170.118 22.24C169.771 21.72 169.251 21.46 168.558 21.46C167.851 21.46 167.211 21.72 166.638 22.24C166.064 22.7467 165.658 23.4067 165.418 24.22V30.5H163.658V24.66C163.658 23.5533 163.484 22.7467 163.138 22.24C162.791 21.72 162.271 21.46 161.578 21.46C160.884 21.46 160.244 21.7133 159.658 22.22C159.084 22.7133 158.678 23.3733 158.438 24.2V30.5H156.678V20.06H158.278V22.3C158.704 21.5267 159.258 20.9333 159.938 20.52C160.618 20.0933 161.384 19.88 162.238 19.88C163.104 19.88 163.798 20.12 164.318 20.6C164.838 21.0667 165.158 21.6733 165.278 22.42C165.744 21.5933 166.311 20.9667 166.978 20.54C167.644 20.1 168.404 19.88 169.258 19.88C169.858 19.88 170.358 19.9933 170.758 20.22C171.171 20.4333 171.498 20.74 171.738 21.14C171.978 21.5267 172.151 21.9867 172.258 22.52C172.364 23.0533 172.418 23.6333 172.418 24.26V30.5ZM175.154 30.5V20.06H176.914V30.5H175.154ZM175.154 18.1V15.9H176.914V18.1H175.154ZM190.862 30.6C189.862 30.6 188.956 30.4 188.142 30C187.329 29.6 186.622 29.06 186.022 28.38C185.436 27.6867 184.982 26.9133 184.662 26.06C184.342 25.1933 184.182 24.3067 184.182 23.4C184.182 22.4533 184.349 21.5533 184.682 20.7C185.029 19.8333 185.502 19.0667 186.102 18.4C186.716 17.72 187.429 17.1867 188.242 16.8C189.056 16.4 189.942 16.2 190.902 16.2C191.902 16.2 192.809 16.4067 193.622 16.82C194.436 17.2333 195.136 17.7867 195.722 18.48C196.309 19.1733 196.762 19.9467 197.082 20.8C197.402 21.6533 197.562 22.5267 197.562 23.42C197.562 24.3667 197.396 25.2733 197.062 26.14C196.729 26.9933 196.256 27.76 195.642 28.44C195.042 29.1067 194.336 29.6333 193.522 30.02C192.709 30.4067 191.822 30.6 190.862 30.6ZM186.002 23.4C186.002 24.12 186.116 24.82 186.342 25.5C186.582 26.1667 186.916 26.76 187.342 27.28C187.769 27.8 188.282 28.2133 188.882 28.52C189.482 28.8267 190.149 28.98 190.882 28.98C191.642 28.98 192.322 28.82 192.922 28.5C193.522 28.18 194.029 27.7533 194.442 27.22C194.869 26.6867 195.189 26.0867 195.402 25.42C195.629 24.7533 195.742 24.08 195.742 23.4C195.742 22.68 195.622 21.9867 195.382 21.32C195.156 20.6533 194.822 20.06 194.382 19.54C193.956 19.0067 193.442 18.5933 192.842 18.3C192.256 17.9933 191.602 17.84 190.882 17.84C190.122 17.84 189.442 18 188.842 18.32C188.242 18.6267 187.729 19.0467 187.302 19.58C186.889 20.1133 186.569 20.7133 186.342 21.38C186.116 22.0333 186.002 22.7067 186.002 23.4ZM199.37 30.5V28.26H200.85V30.5H199.37Z" fill="#F5F5F5"/>
</svg>
