<svg width="46" height="46" viewBox="0 0 46 46" fill="none" xmlns="http://www.w3.org/2000/svg">
<rect width="46" height="46" rx="23" fill="#F8F8F8"/>
<path d="M10.1985 29.5146V29.558H10.0512C10.0512 29.558 10.0512 29.532 10.0512 29.519L10.1985 29.5146ZM39.3847 23.09C39.3733 27.2218 37.8275 31.2021 35.0472 34.2585C32.2669 37.315 28.4504 39.2297 24.3381 39.6312C20.2258 40.0327 16.111 38.8923 12.792 36.4313C9.47307 33.9703 7.18662 30.3641 6.3763 26.3125C5.56598 22.2609 6.28957 18.0527 8.40668 14.5045C10.5238 10.9563 13.8835 8.32099 17.8338 7.10993C21.7842 5.89888 26.0436 6.19842 29.7856 7.95043C33.5276 9.70245 36.4854 12.782 38.085 16.5916C38.9493 18.6488 39.3913 20.8586 39.3847 23.09V23.09ZM36.9976 23.09C36.9994 20.915 36.5063 18.7681 35.5556 16.8119C34.6048 14.8558 33.2215 13.1416 31.5102 11.7991C29.7989 10.4567 27.8046 9.52132 25.6783 9.06373C23.552 8.60613 21.3495 8.63837 19.2375 9.15799C17.1255 9.67761 15.1594 10.671 13.4882 12.0629C11.8169 13.4548 10.4843 15.2088 9.59124 17.1919C8.69817 19.1751 8.26807 21.3355 8.3335 23.5095C8.39894 25.6835 8.95819 27.8141 9.96892 29.7399C10.2033 29.6815 10.4323 29.6033 10.6534 29.506C10.961 29.363 11.2469 29.1767 11.5415 29.0078L11.5978 28.9558L11.5112 28.8821C11.4765 28.8475 11.4895 28.8258 11.5329 28.8128C11.5762 28.7998 11.5329 28.8128 11.5329 28.8128C11.6931 28.8821 11.8881 28.8475 12.0181 28.9948L12.0441 29.0251L12.2867 29.1681C12.3473 29.2027 12.4036 29.2374 12.4123 29.1074L12.9711 29.3457C13.0094 29.2844 13.0614 29.2329 13.1231 29.1953C13.1848 29.1577 13.2544 29.135 13.3264 29.1291C13.462 29.1017 13.5942 29.0596 13.7206 29.0034V29.0034L14.0672 28.7608C13.8824 28.8665 13.6898 28.9577 13.491 29.0338C13.4835 29.037 13.4754 29.0386 13.4672 29.0386C13.459 29.0386 13.4509 29.037 13.4434 29.0338L13.8203 28.8561C14.1678 28.6915 14.4867 28.4721 14.7647 28.2063L15.3625 27.4395C15.4519 27.2535 15.5174 27.057 15.5575 26.8547C15.6399 26.3511 15.6399 25.8376 15.5575 25.334C15.5575 25.2647 15.5575 25.1954 15.5575 25.1304C15.5575 25.0655 15.5575 25.1304 15.5575 25.1044L15.4968 25.2431L15.4752 25.2127C15.4535 25.0741 15.4405 24.9398 15.4145 24.8055C15.3885 24.6712 15.3582 24.6062 15.3322 24.5066C15.2846 24.3376 15.2456 24.1687 15.1892 24.0041C15.1329 23.8394 15.0463 23.6228 14.9683 23.4365C14.8903 23.2503 14.8037 23.0596 14.7257 22.8647C14.6954 22.7867 14.6867 22.6957 14.6607 22.6134C14.6583 22.5663 14.6417 22.521 14.6131 22.4834C14.4268 22.2972 14.4354 22.0026 14.2232 21.8249C14.1365 21.7556 14.1149 21.617 14.0585 21.5087L14.0152 21.4264C14.0152 21.4004 13.9719 21.3657 13.9762 21.3397C13.9762 21.1751 13.8852 21.0711 13.8116 20.9455C13.7746 20.8656 13.7484 20.7811 13.7336 20.6942C13.7296 20.6459 13.7208 20.598 13.7076 20.5513C13.647 20.404 13.569 20.2697 13.5213 20.1181C13.4731 19.9619 13.4355 19.8027 13.4087 19.6415C13.3524 19.3253 13.3221 19.009 13.2441 18.7014C13.1964 18.5065 13.2224 18.3115 13.1834 18.1209C13.1655 18.0355 13.1582 17.9482 13.1618 17.861C13.1618 17.796 13.2008 17.731 13.2094 17.666C13.2622 17.3905 13.2869 17.1104 13.2831 16.8299C13.2547 16.5452 13.2918 16.2577 13.3914 15.9894C13.4112 15.9087 13.4199 15.8256 13.4174 15.7425C13.4174 15.7165 13.4174 15.6819 13.4174 15.6732C13.5387 15.5909 13.5387 15.4566 13.5647 15.3353C13.6296 15.0234 13.6816 14.7114 13.7466 14.3995C13.7734 14.3127 13.8113 14.2297 13.8593 14.1526C13.9 14.0835 13.9448 14.017 13.9936 13.9533L14.3185 13.5201C14.4524 13.3509 14.5767 13.1745 14.691 12.9916C14.8594 12.7016 15.1055 12.4645 15.4015 12.3071C15.7853 12.0919 16.1518 11.8471 16.4976 11.5749C17.1054 11.0897 17.8245 10.7636 18.59 10.6262C18.9236 10.5655 19.2442 10.4485 19.5691 10.3619L19.894 10.2752C19.9126 10.271 19.9318 10.271 19.9504 10.2752C20.111 10.3163 20.2793 10.3163 20.4399 10.2752C20.7042 10.2406 20.9728 10.2059 21.237 10.1799C21.419 10.1799 21.6009 10.1539 21.7829 10.1453C21.8479 10.1453 21.9129 10.1756 21.9735 10.1756C22.1251 10.1756 22.2724 10.1756 22.4067 10.1756C22.8805 10.1258 23.3582 10.1258 23.832 10.1756C24.1093 10.2103 24.3865 10.2709 24.6595 10.3186H24.6855C24.8536 10.3298 25.0169 10.3802 25.162 10.4659C25.3483 10.5352 25.5303 10.6262 25.7209 10.6955C26.0474 10.813 26.3332 11.022 26.544 11.2977C26.7775 11.6057 26.9657 11.9456 27.1029 12.3071C27.1161 12.3415 27.132 12.3748 27.1505 12.4067C27.3229 12.6756 27.4571 12.9672 27.5491 13.2731C27.6104 13.4465 27.6568 13.6248 27.6877 13.806C27.7242 13.983 27.8013 14.1491 27.913 14.2912C28.0559 14.4732 28.1946 14.6638 28.3462 14.8501C28.3979 14.9211 28.4456 14.9948 28.4892 15.071C28.5282 15.1403 28.5541 15.2226 28.5975 15.292C28.6467 15.3783 28.7064 15.4584 28.7751 15.5302C29.0525 15.821 29.2248 16.1961 29.2646 16.596C29.2745 16.6562 29.289 16.7156 29.308 16.7736C29.347 16.9271 29.347 17.0879 29.308 17.2415C29.2546 17.4789 29.2443 17.7239 29.2776 17.9649C29.2862 18.0861 29.2862 18.2077 29.2776 18.3288C29.2769 18.362 29.2844 18.3948 29.2995 18.4243C29.3147 18.4538 29.3369 18.4791 29.3643 18.4978C29.5289 18.6148 29.6979 18.7361 29.8581 18.8617C29.9116 18.9094 29.9609 18.9616 30.0054 19.0177C30.1397 19.165 30.287 19.3079 30.4127 19.4509C30.6303 19.7088 30.739 20.0413 30.7159 20.378C30.7179 20.3924 30.7179 20.4069 30.7159 20.4213C30.6565 20.5936 30.6186 20.7726 30.6033 20.9542C30.5962 21.059 30.5675 21.1612 30.519 21.2543C30.4706 21.3475 30.4034 21.4297 30.3217 21.4957C30.287 21.5217 30.2567 21.5564 30.2177 21.591L30.4647 21.7556C30.5178 21.7851 30.5642 21.8253 30.6007 21.8739C30.6373 21.9224 30.6633 21.978 30.6769 22.0372C30.7014 22.1482 30.7392 22.2559 30.7896 22.3578C30.8459 22.4661 30.7896 22.5831 30.8372 22.6784C30.8849 22.7737 30.8589 22.8604 30.8632 22.9557C30.8632 22.9297 30.8632 22.8993 30.8632 22.8777C30.8286 23.0336 30.7982 23.1896 30.7636 23.3456L30.7939 23.3846C31.0322 23.6705 30.6163 24.4763 30.6163 24.4763C30.547 24.5889 30.4733 24.7059 30.4127 24.8228C30.3482 24.9429 30.2959 25.0692 30.2567 25.1998C30.2134 25.334 30.3 25.4337 30.378 25.5247C30.4616 25.6335 30.5721 25.7186 30.6986 25.7716C30.7419 25.7716 30.7636 25.8496 30.7982 25.8886L30.9455 26.0705C30.9869 26.1186 31.0232 26.1709 31.0538 26.2265C31.1361 26.3868 31.1535 26.5774 31.3051 26.7117C31.3571 26.755 31.3614 26.8633 31.3614 26.9456C31.3518 27.0152 31.3343 27.0835 31.3094 27.1492C31.2531 27.3269 31.2055 27.5045 31.1448 27.6821C31.1145 27.7818 31.0712 27.8814 31.0322 27.9767C30.9932 28.072 30.9542 28.1153 30.9282 28.189C30.9116 28.2607 30.8722 28.3252 30.816 28.3728C30.7598 28.4204 30.6898 28.4486 30.6163 28.4532L30.4603 28.4792C30.4139 28.481 30.3687 28.4941 30.3287 28.5176C30.2886 28.541 30.255 28.574 30.2307 28.6135C30.1534 28.7361 30.041 28.8326 29.9081 28.8905C29.7752 28.9485 29.628 28.9652 29.4856 28.9385C29.1727 28.9006 28.8648 28.8295 28.5671 28.7262C28.4493 28.7073 28.3419 28.6475 28.2639 28.5572C28.2424 28.5392 28.2173 28.5259 28.1902 28.5182C27.9615 28.4019 27.7489 28.2562 27.5577 28.085C27.4897 28.0386 27.4131 28.0062 27.3325 27.9897C27.2935 27.9897 27.2458 27.9897 27.2068 27.9637C26.9908 27.9065 26.7672 27.8832 26.544 27.8944C26.3063 27.9165 26.0818 28.0136 25.9028 28.1717C25.5585 28.4847 25.2737 28.8575 25.0624 29.272C24.9064 29.5493 24.7808 29.8396 24.6292 30.1385C24.5704 30.284 24.5495 30.442 24.5685 30.5977C24.5583 30.915 24.5133 31.2303 24.4342 31.5378C24.3822 31.7717 24.3389 32.01 24.2912 32.2483C24.282 32.2822 24.2852 32.3184 24.3003 32.3502C24.3154 32.3819 24.3414 32.4073 24.3736 32.4216C24.6811 32.6165 24.9887 32.8201 25.3006 33.0064C25.4479 33.0974 25.6126 33.1494 25.7642 33.2274C26.1996 33.467 26.5931 33.7757 26.9296 34.1415C27.3466 34.5903 27.8099 34.994 28.3115 35.3458C28.4242 35.4238 28.5585 35.4671 28.6754 35.5408C28.7924 35.6144 28.983 35.766 29.139 35.8657C31.5003 34.6688 33.4843 32.8417 34.8713 30.5869C36.2583 28.332 36.9942 25.7373 36.9976 23.09Z" fill="#121212"/>
</svg>
